# xmcd
#
# Track frame offsets:
#	150
#	15692
#	31842
#	43994
#	50153
#	69233
#	80703
#	93123
#	101199
#	116281
#	128880
#	146636
#	161481
#
# Disc length: 2340 seconds
# Revision: 0
# Processed by: cddbd v1.5.2PL0 Copyright (c) Steve Scherf et al.
# Submitted via: dBpowerAMP V12.0
#
DISCID=ae09220d
DTITLE=California Cowboy Band - Riding Catalina Again
DYEAR=2009
DGENRE=Country
TTITLE0=Fence Rider
TTITLE1=Dying Breed
TTITLE2=The Higher The Horse The Harder The Ground
TTITLE3=The Bucket
TTITLE4=Riding Catalina Again
TTITLE5=I Left My Boots Down In San Antoine
TTITLE6=Cawboy Jazz
TTITLE7=The Bell
TTITLE8=California Cowboy
TTITLE9=Can't Be A Cowboy Anymore
TTITLE10=Cowboy Blue
TTITLE11=The Box
TTITLE12=Trail Of Broken Hearts
EXTD=
EXTT0=
EXTT1=
EXTT2=
EXTT3=
EXTT4=
EXTT5=
EXTT6=
EXTT7=
EXTT8=
EXTT9=
EXTT10=
EXTT11=
EXTT12=
PLAYORDER=
